<?xml version="1.0" standalone="no"?>
<!DOCTYPE svg PUBLIC "-//W3C//DTD SVG 20010904//EN"
 "http://www.w3.org/TR/2001/REC-SVG-20010904/DTD/svg10.dtd">
<svg version="1.0" xmlns="http://www.w3.org/2000/svg"
 width="102.000000pt" height="102.000000pt" viewBox="0 0 102.000000 102.000000"
 preserveAspectRatio="xMidYMid meet">
<metadata>
Created by potrace 1.14, written by Peter Selinger 2001-2017
</metadata>
<g transform="translate(0.000000,102.000000) scale(0.100000,-0.100000)"
fill="#000000" stroke="none">
<path d="M375 1010 c-3 -5 -3 -23 0 -39 5 -28 -4 -40 -105 -141 l-111 -111 6
-42 c4 -23 7 -42 8 -43 1 0 19 -11 40 -24 l38 -22 15 21 c28 40 210 145 187
108 -4 -6 -19 -30 -34 -52 -43 -63 -69 -157 -78 -274 -4 -58 -6 -109 -4 -113
2 -5 14 -8 26 -8 19 -1 18 -3 -9 -18 -67 -38 -124 -105 -139 -165 -5 -17 -14
-27 -25 -27 -20 0 -35 -29 -22 -42 4 -4 161 -7 348 -6 311 3 339 4 342 20 2
12 -5 19 -22 24 -17 4 -27 15 -31 34 -12 55 -71 124 -139 163 -27 15 -28 17
-9 17 26 0 39 18 25 32 -8 8 1 24 29 56 49 56 70 122 75 232 6 145 -30 266
-99 331 -36 35 -107 73 -153 83 -56 12 -153 16 -159 6z"/>
</g>
</svg>
